<svg width="180" height="47" viewBox="0 0 180 47" fill="none" xmlns="http://www.w3.org/2000/svg">
<path d="M10.824 4.352C15.784 4.352 19.592 5.232 22.248 6.992C24.904 8.72 26.232 11.568 26.232 15.536C26.232 19.536 24.888 22.432 22.2 24.224C19.512 25.984 15.672 26.864 10.68 26.864H8.328V38H0.84V5.216C2.472 4.896 4.2 4.672 6.024 4.544C7.848 4.416 9.448 4.352 10.824 4.352ZM11.304 10.736C10.76 10.736 10.216 10.752 9.672 10.784C9.16 10.816 8.712 10.848 8.328 10.88V20.48H10.68C13.272 20.48 15.224 20.128 16.536 19.424C17.848 18.72 18.504 17.408 18.504 15.488C18.504 14.56 18.328 13.792 17.976 13.184C17.656 12.576 17.176 12.096 16.536 11.744C15.928 11.36 15.176 11.104 14.28 10.976C13.384 10.816 12.392 10.736 11.304 10.736ZM54.6041 12.752C53.1641 17.616 51.6601 22.176 50.0921 26.432C48.5241 30.688 46.8121 34.816 44.9561 38.816C44.2841 40.256 43.6121 41.472 42.9401 42.464C42.2681 43.488 41.5321 44.32 40.7321 44.96C39.9321 45.632 39.0201 46.112 37.9961 46.4C37.0041 46.72 35.8361 46.88 34.4921 46.88C33.3721 46.88 32.3321 46.768 31.3721 46.544C30.4441 46.352 29.6761 46.128 29.0681 45.872L30.3161 40.16C31.0521 40.416 31.7081 40.592 32.2841 40.688C32.8601 40.784 33.4681 40.832 34.1081 40.832C35.3881 40.832 36.3641 40.48 37.0361 39.776C37.7401 39.104 38.3321 38.16 38.8121 36.944C37.1801 33.744 35.5481 30.16 33.9161 26.192C32.2841 22.192 30.7481 17.712 29.3081 12.752H36.8921C37.2121 14 37.5801 15.36 37.9961 16.832C38.4441 18.272 38.9081 19.744 39.3881 21.248C39.8681 22.72 40.3481 24.16 40.8281 25.568C41.3401 26.976 41.8201 28.256 42.2681 29.408C42.6841 28.256 43.1161 26.976 43.5641 25.568C44.0121 24.16 44.4441 22.72 44.8601 21.248C45.3081 19.744 45.7241 18.272 46.1081 16.832C46.5241 15.36 46.8921 14 47.2121 12.752H54.6041Z" fill="#1A2420"/>
<path d="M83.5901 4.736V11.12H73.5581V38H66.0701V11.12H56.0381V4.736H83.5901ZM93.9611 33.008C94.6651 33.008 95.3371 32.992 95.9771 32.96C96.6171 32.928 97.1291 32.88 97.5131 32.816V27.392C97.2251 27.328 96.7931 27.264 96.2171 27.2C95.6411 27.136 95.1131 27.104 94.6331 27.104C93.9611 27.104 93.3211 27.152 92.7131 27.248C92.1371 27.312 91.6251 27.456 91.1771 27.68C90.7291 27.904 90.3771 28.208 90.1211 28.592C89.8651 28.976 89.7371 29.456 89.7371 30.032C89.7371 31.152 90.1051 31.936 90.8411 32.384C91.6091 32.8 92.6491 33.008 93.9611 33.008ZM93.3851 12.08C95.4971 12.08 97.2571 12.32 98.6651 12.8C100.073 13.28 101.193 13.968 102.025 14.864C102.889 15.76 103.497 16.848 103.849 18.128C104.201 19.408 104.377 20.832 104.377 22.4V37.28C103.353 37.504 101.929 37.76 100.105 38.048C98.2811 38.368 96.0731 38.528 93.4811 38.528C91.8491 38.528 90.3611 38.384 89.0171 38.096C87.7051 37.808 86.5691 37.344 85.6091 36.704C84.6491 36.032 83.9131 35.168 83.4011 34.112C82.8891 33.056 82.6331 31.76 82.6331 30.224C82.6331 28.752 82.9211 27.504 83.4971 26.48C84.1051 25.456 84.9051 24.64 85.8971 24.032C86.8891 23.424 88.0251 22.992 89.3051 22.736C90.5851 22.448 91.9131 22.304 93.2891 22.304C94.2171 22.304 95.0331 22.352 95.7371 22.448C96.4731 22.512 97.0651 22.608 97.5131 22.736V22.064C97.5131 20.848 97.1451 19.872 96.4091 19.136C95.6731 18.4 94.3931 18.032 92.5691 18.032C91.3531 18.032 90.1531 18.128 88.9691 18.32C87.7851 18.48 86.7611 18.72 85.8971 19.04L84.9851 13.28C85.4011 13.152 85.9131 13.024 86.5211 12.896C87.1611 12.736 87.8491 12.608 88.5851 12.512C89.3211 12.384 90.0891 12.288 90.8891 12.224C91.7211 12.128 92.5531 12.08 93.3851 12.08ZM118.092 32.864C119.404 32.864 120.332 32.736 120.876 32.48C121.42 32.224 121.692 31.728 121.692 30.992C121.692 30.416 121.34 29.92 120.636 29.504C119.932 29.056 118.86 28.56 117.42 28.016C116.3 27.6 115.276 27.168 114.348 26.72C113.452 26.272 112.684 25.744 112.044 25.136C111.404 24.496 110.908 23.744 110.556 22.88C110.204 22.016 110.028 20.976 110.028 19.76C110.028 17.392 110.908 15.52 112.668 14.144C114.428 12.768 116.844 12.08 119.916 12.08C121.452 12.08 122.924 12.224 124.332 12.512C125.74 12.768 126.86 13.056 127.692 13.376L126.444 18.944C125.612 18.656 124.7 18.4 123.708 18.176C122.748 17.952 121.66 17.84 120.444 17.84C118.204 17.84 117.084 18.464 117.084 19.712C117.084 20 117.132 20.256 117.228 20.48C117.324 20.704 117.516 20.928 117.804 21.152C118.092 21.344 118.476 21.568 118.956 21.824C119.468 22.048 120.108 22.304 120.876 22.592C122.444 23.168 123.74 23.744 124.764 24.32C125.788 24.864 126.588 25.472 127.164 26.144C127.772 26.784 128.188 27.504 128.412 28.304C128.668 29.104 128.796 30.032 128.796 31.088C128.796 33.584 127.852 35.472 125.964 36.752C124.108 38.032 121.468 38.672 118.044 38.672C115.804 38.672 113.932 38.48 112.428 38.096C110.956 37.712 109.932 37.392 109.356 37.136L110.556 31.328C111.772 31.808 113.02 32.192 114.3 32.48C115.58 32.736 116.844 32.864 118.092 32.864ZM141.293 21.872C141.997 21.104 142.717 20.304 143.453 19.472C144.221 18.64 144.957 17.824 145.661 17.024C146.365 16.192 147.021 15.408 147.629 14.672C148.269 13.936 148.813 13.296 149.261 12.752H157.757C156.061 14.704 154.397 16.576 152.765 18.368C151.165 20.128 149.405 21.952 147.485 23.84C148.445 24.704 149.437 25.744 150.461 26.96C151.485 28.144 152.477 29.376 153.437 30.656C154.397 31.936 155.277 33.216 156.077 34.496C156.877 35.776 157.549 36.944 158.093 38H149.885C149.373 37.168 148.781 36.256 148.109 35.264C147.469 34.24 146.781 33.232 146.045 32.24C145.309 31.216 144.525 30.24 143.693 29.312C142.893 28.384 142.093 27.6 141.293 26.96V38H134.141V1.904L141.293 0.751999V21.872ZM169.186 32.864C170.498 32.864 171.426 32.736 171.97 32.48C172.514 32.224 172.786 31.728 172.786 30.992C172.786 30.416 172.434 29.92 171.73 29.504C171.026 29.056 169.954 28.56 168.514 28.016C167.394 27.6 166.37 27.168 165.442 26.72C164.546 26.272 163.778 25.744 163.138 25.136C162.498 24.496 162.002 23.744 161.65 22.88C161.298 22.016 161.122 20.976 161.122 19.76C161.122 17.392 162.002 15.52 163.762 14.144C165.522 12.768 167.938 12.08 171.01 12.08C172.546 12.08 174.018 12.224 175.426 12.512C176.834 12.768 177.954 13.056 178.786 13.376L177.538 18.944C176.706 18.656 175.794 18.4 174.802 18.176C173.842 17.952 172.754 17.84 171.538 17.84C169.298 17.84 168.178 18.464 168.178 19.712C168.178 20 168.226 20.256 168.322 20.48C168.418 20.704 168.61 20.928 168.898 21.152C169.186 21.344 169.57 21.568 170.05 21.824C170.562 22.048 171.202 22.304 171.97 22.592C173.538 23.168 174.834 23.744 175.858 24.32C176.882 24.864 177.682 25.472 178.258 26.144C178.866 26.784 179.282 27.504 179.506 28.304C179.762 29.104 179.89 30.032 179.89 31.088C179.89 33.584 178.946 35.472 177.058 36.752C175.202 38.032 172.562 38.672 169.138 38.672C166.898 38.672 165.026 38.48 163.522 38.096C162.05 37.712 161.026 37.392 160.45 37.136L161.65 31.328C162.866 31.808 164.114 32.192 165.394 32.48C166.674 32.736 167.938 32.864 169.186 32.864Z" fill="#488B5E"/>
</svg>
